<svg xmlns="http://www.w3.org/2000/svg" xmlns:xlink="http://www.w3.org/1999/xlink" width="205" zoomAndPan="magnify" viewBox="0 0 153.75 32.249999" height="43" preserveAspectRatio="xMidYMid meet" version="1.0"><defs><g/><clipPath id="41716c9a37"><path d="M 1.625 0 L 151.878906 0 L 151.878906 31.515625 L 1.625 31.515625 Z M 1.625 0 " clip-rule="nonzero"/></clipPath><clipPath id="0f3445de45"><rect x="0" width="151" y="0" height="32"/></clipPath></defs><g clip-path="url(#41716c9a37)"><g transform="matrix(1, 0, 0, 1, 1, 0)"><g clip-path="url(#0f3445de45)"><g fill="#ffffff" fill-opacity="1"><g transform="translate(0.625002, 24.426815)"><g><path d="M 1.59375 -16.90625 L 13.25 -16.90625 L 13.25 -13.171875 L 6.875 -13.171875 L 6.875 -9.75 L 12.78125 -9.75 L 12.78125 -6.65625 L 6.875 -6.65625 L 6.875 0 L 1.59375 0 Z M 1.59375 -16.90625 "/></g></g></g><g fill="#ffffff" fill-opacity="1"><g transform="translate(14.219867, 24.426815)"><g><path d="M 7.6875 0.203125 C 6.3125 0.203125 5.085938 -0.0664062 4.015625 -0.609375 C 2.941406 -1.148438 2.101562 -1.898438 1.5 -2.859375 C 0.90625 -3.816406 0.609375 -4.921875 0.609375 -6.171875 C 0.609375 -7.410156 0.910156 -8.507812 1.515625 -9.46875 C 2.128906 -10.425781 2.972656 -11.164062 4.046875 -11.6875 C 5.117188 -12.21875 6.34375 -12.484375 7.71875 -12.484375 C 9.113281 -12.484375 10.347656 -12.21875 11.421875 -11.6875 C 12.492188 -11.15625 13.320312 -10.410156 13.90625 -9.453125 C 14.5 -8.503906 14.796875 -7.410156 14.796875 -6.171875 C 14.796875 -4.910156 14.492188 -3.800781 13.890625 -2.84375 C 13.296875 -1.882812 12.460938 -1.132812 11.390625 -0.59375 C 10.316406 -0.0625 9.082031 0.203125 7.6875 0.203125 Z M 7.734375 -3.484375 C 8.410156 -3.484375 8.960938 -3.734375 9.390625 -4.234375 C 9.828125 -4.734375 10.046875 -5.378906 10.046875 -6.171875 C 10.046875 -6.953125 9.828125 -7.59375 9.390625 -8.09375 C 8.960938 -8.59375 8.410156 -8.84375 7.734375 -8.84375 C 7.066406 -8.84375 6.515625 -8.59375 6.078125 -8.09375 C 5.648438 -7.59375 5.4375 -6.953125 5.4375 -6.171875 C 5.4375 -5.378906 5.648438 -4.734375 6.078125 -4.234375 C 6.515625 -3.734375 7.066406 -3.484375 7.734375 -3.484375 Z M 7.734375 -3.484375 "/></g></g></g><g fill="#ffffff" fill-opacity="1"><g transform="translate(29.166837, 24.426815)"><g><path d="M 3.78125 -6.390625 L 0.296875 -12.3125 L 5.484375 -12.3125 L 6.859375 -9.40625 L 8.28125 -12.3125 L 13.328125 -12.3125 L 9.875 -6.390625 L 13.5625 0 L 8.53125 0 L 6.859375 -3.140625 L 5.234375 0 L 0.046875 0 Z M 3.78125 -6.390625 "/></g></g></g><g fill="#ffffff" fill-opacity="1"><g transform="translate(42.810891, 24.426815)"><g><path d="M 5.546875 0.203125 C 4.171875 0.203125 3.097656 -0.238281 2.328125 -1.125 C 1.566406 -2.007812 1.1875 -3.21875 1.1875 -4.75 L 1.1875 -12.3125 L 6.390625 -12.3125 L 6.390625 -4.96875 C 6.390625 -4.59375 6.488281 -4.300781 6.6875 -4.09375 C 6.894531 -3.882812 7.164062 -3.78125 7.5 -3.78125 C 7.820312 -3.78125 8.15625 -3.878906 8.5 -4.078125 L 8.78125 -0.65625 C 8.414062 -0.382812 7.941406 -0.171875 7.359375 -0.015625 C 6.773438 0.128906 6.171875 0.203125 5.546875 0.203125 Z M 3.78125 -14.15625 C 3.007812 -14.15625 2.359375 -14.394531 1.828125 -14.875 C 1.296875 -15.363281 1.03125 -15.957031 1.03125 -16.65625 C 1.03125 -17.363281 1.304688 -17.953125 1.859375 -18.421875 C 2.421875 -18.898438 3.0625 -19.140625 3.78125 -19.140625 C 4.53125 -19.140625 5.179688 -18.894531 5.734375 -18.40625 C 6.285156 -17.914062 6.5625 -17.332031 6.5625 -16.65625 C 6.5625 -15.9375 6.28125 -15.335938 5.71875 -14.859375 C 5.164062 -14.390625 4.519531 -14.15625 3.78125 -14.15625 Z M 3.78125 -14.15625 "/></g></g></g><g fill="#ffffff" fill-opacity="1"><g transform="translate(51.784006, 24.426815)"><g><path d="M 7.59375 0.203125 C 6.226562 0.203125 5.019531 -0.0703125 3.96875 -0.625 C 2.914062 -1.175781 2.09375 -1.929688 1.5 -2.890625 C 0.90625 -3.847656 0.609375 -4.929688 0.609375 -6.140625 C 0.609375 -7.390625 0.910156 -8.492188 1.515625 -9.453125 C 2.128906 -10.421875 2.953125 -11.164062 3.984375 -11.6875 C 5.015625 -12.21875 6.160156 -12.484375 7.421875 -12.484375 C 8.628906 -12.484375 9.664062 -12.21875 10.53125 -11.6875 C 11.394531 -11.15625 12.035156 -10.429688 12.453125 -9.515625 C 12.878906 -8.609375 13.09375 -7.59375 13.09375 -6.46875 C 13.09375 -6.164062 13.078125 -5.953125 13.046875 -5.828125 L 5.671875 -4.859375 C 5.867188 -4.285156 6.1875 -3.875 6.625 -3.625 C 7.070312 -3.375 7.65625 -3.25 8.375 -3.25 C 9.488281 -3.25 10.695312 -3.535156 12 -4.109375 L 12.609375 -0.8125 C 11.085938 -0.132812 9.414062 0.203125 7.59375 0.203125 Z M 9.296875 -7.96875 C 9.023438 -9 8.398438 -9.515625 7.421875 -9.515625 C 6.828125 -9.515625 6.359375 -9.289062 6.015625 -8.84375 C 5.671875 -8.40625 5.492188 -7.832031 5.484375 -7.125 Z M 9.296875 -7.96875 "/></g></g></g><g fill="#0040ff" fill-opacity="1"><g transform="translate(65.453619, 24.426815)"><g><path d="M 4.796875 -16.90625 L 12.265625 -16.90625 L 17.15625 0 L 11.375 0 L 10.734375 -3.25 L 6.359375 -3.25 L 5.65625 0 L 0.125 0 Z M 10.15625 -6.265625 L 8.546875 -13.671875 L 6.875 -6.265625 Z M 10.15625 -6.265625 "/></g></g></g><g fill="#0040ff" fill-opacity="1"><g transform="translate(82.637747, 24.426815)"><g><path d="M 6.609375 0.203125 C 5.492188 0.203125 4.484375 -0.09375 3.578125 -0.6875 C 2.671875 -1.28125 1.953125 -2.0625 1.421875 -3.03125 C 0.898438 -4.007812 0.640625 -5.046875 0.640625 -6.140625 C 0.640625 -7.304688 0.910156 -8.375 1.453125 -9.34375 C 2.003906 -10.320312 2.742188 -11.085938 3.671875 -11.640625 C 4.597656 -12.203125 5.585938 -12.484375 6.640625 -12.484375 C 7.585938 -12.484375 8.390625 -12.285156 9.046875 -11.890625 C 9.710938 -11.503906 10.253906 -10.875 10.671875 -10 L 10.671875 -16.203125 L 15.859375 -16.953125 L 15.859375 0 L 10.671875 0 L 10.671875 -2.28125 C 9.898438 -0.625 8.546875 0.203125 6.609375 0.203125 Z M 8.234375 -3.6875 C 8.921875 -3.6875 9.5 -3.929688 9.96875 -4.421875 C 10.4375 -4.910156 10.671875 -5.484375 10.671875 -6.140625 L 10.671875 -6.25 C 10.671875 -6.882812 10.421875 -7.4375 9.921875 -7.90625 C 9.429688 -8.375 8.867188 -8.609375 8.234375 -8.609375 C 7.546875 -8.609375 6.96875 -8.363281 6.5 -7.875 C 6.03125 -7.394531 5.796875 -6.816406 5.796875 -6.140625 C 5.796875 -5.453125 6.035156 -4.867188 6.515625 -4.390625 C 7.003906 -3.921875 7.578125 -3.6875 8.234375 -3.6875 Z M 8.234375 -3.6875 "/></g></g></g><g fill="#0040ff" fill-opacity="1"><g transform="translate(99.77271, 24.426815)"><g><path d="M 1.234375 -12.140625 L 6.171875 -12.140625 L 6.171875 -9.640625 C 6.722656 -10.597656 7.351562 -11.3125 8.0625 -11.78125 C 8.78125 -12.25 9.632812 -12.484375 10.625 -12.484375 C 11.582031 -12.484375 12.414062 -12.238281 13.125 -11.75 C 13.84375 -11.269531 14.382812 -10.625 14.75 -9.8125 C 15.789062 -11.59375 17.3125 -12.484375 19.3125 -12.484375 C 20.269531 -12.484375 21.101562 -12.226562 21.8125 -11.71875 C 22.519531 -11.21875 23.070312 -10.488281 23.46875 -9.53125 C 23.863281 -8.570312 24.0625 -7.441406 24.0625 -6.140625 L 24.0625 0 L 18.875 0 L 18.875 -6.140625 C 18.875 -6.972656 18.726562 -7.601562 18.4375 -8.03125 C 18.15625 -8.457031 17.757812 -8.671875 17.25 -8.671875 C 16.695312 -8.671875 16.21875 -8.429688 15.8125 -7.953125 C 15.414062 -7.484375 15.21875 -6.914062 15.21875 -6.25 L 15.21875 0 L 10.078125 0 L 10.078125 -6.140625 C 10.078125 -6.972656 9.929688 -7.601562 9.640625 -8.03125 C 9.359375 -8.457031 8.957031 -8.671875 8.4375 -8.671875 C 7.875 -8.671875 7.394531 -8.429688 7 -7.953125 C 6.613281 -7.484375 6.421875 -6.914062 6.421875 -6.25 L 6.421875 0 L 1.234375 0 Z M 1.234375 -12.140625 "/></g></g></g><g fill="#0040ff" fill-opacity="1"><g transform="translate(124.995766, 24.426815)"><g><path d="M 5.546875 0.203125 C 4.171875 0.203125 3.097656 -0.238281 2.328125 -1.125 C 1.566406 -2.007812 1.1875 -3.21875 1.1875 -4.75 L 1.1875 -12.3125 L 6.390625 -12.3125 L 6.390625 -4.96875 C 6.390625 -4.59375 6.488281 -4.300781 6.6875 -4.09375 C 6.894531 -3.882812 7.164062 -3.78125 7.5 -3.78125 C 7.820312 -3.78125 8.15625 -3.878906 8.5 -4.078125 L 8.78125 -0.65625 C 8.414062 -0.382812 7.941406 -0.171875 7.359375 -0.015625 C 6.773438 0.128906 6.171875 0.203125 5.546875 0.203125 Z M 3.78125 -14.15625 C 3.007812 -14.15625 2.359375 -14.394531 1.828125 -14.875 C 1.296875 -15.363281 1.03125 -15.957031 1.03125 -16.65625 C 1.03125 -17.363281 1.304688 -17.953125 1.859375 -18.421875 C 2.421875 -18.898438 3.0625 -19.140625 3.78125 -19.140625 C 4.53125 -19.140625 5.179688 -18.894531 5.734375 -18.40625 C 6.285156 -17.914062 6.5625 -17.332031 6.5625 -16.65625 C 6.5625 -15.9375 6.28125 -15.335938 5.71875 -14.859375 C 5.164062 -14.390625 4.519531 -14.15625 3.78125 -14.15625 Z M 3.78125 -14.15625 "/></g></g></g><g fill="#0040ff" fill-opacity="1"><g transform="translate(133.968881, 24.426815)"><g><path d="M 1.234375 -12.140625 L 6.171875 -12.140625 L 6.171875 -9.640625 C 7.117188 -11.535156 8.625 -12.484375 10.6875 -12.484375 C 12.257812 -12.484375 13.492188 -11.921875 14.390625 -10.796875 C 15.285156 -9.679688 15.734375 -8.128906 15.734375 -6.140625 L 15.734375 0 L 10.5625 0 L 10.5625 -6.65625 C 10.5625 -7.363281 10.410156 -7.90625 10.109375 -8.28125 C 9.804688 -8.65625 9.382812 -8.84375 8.84375 -8.84375 C 8.457031 -8.84375 8.070312 -8.71875 7.6875 -8.46875 C 7.3125 -8.21875 7.003906 -7.851562 6.765625 -7.375 C 6.535156 -6.894531 6.421875 -6.351562 6.421875 -5.75 L 6.421875 0 L 1.234375 0 Z M 1.234375 -12.140625 "/></g></g></g></g></g></g></svg>