<svg xmlns="http://www.w3.org/2000/svg" xmlns:xlink="http://www.w3.org/1999/xlink" width="43" zoomAndPan="magnify" viewBox="0 0 32.25 32.249998" height="43" preserveAspectRatio="xMidYMid meet" version="1.0"><defs><g/><clipPath id="a5f2afa005"><path d="M 5 0 L 28 0 L 28 31.515625 L 5 31.515625 Z M 5 0 " clip-rule="nonzero"/></clipPath><clipPath id="7887ac6b27"><path d="M 0.160156 0 L 22.675781 0 L 22.675781 31.515625 L 0.160156 31.515625 Z M 0.160156 0 " clip-rule="nonzero"/></clipPath><clipPath id="8db9daa373"><rect x="0" width="23" y="0" height="32"/></clipPath><clipPath id="a608411547"><rect x="0" width="23" y="0" height="32"/></clipPath></defs><g clip-path="url(#a5f2afa005)"><g transform="matrix(1, 0, 0, 1, 5, -0.000000000000000682)"><g clip-path="url(#a608411547)"><g clip-path="url(#7887ac6b27)"><g transform="matrix(1, 0, 0, 1, 0, -0.000000000000000682)"><g clip-path="url(#8db9daa373)"><g fill="#0040ff" fill-opacity="1"><g transform="translate(0.365624, 26.835543)"><g><path d="M 2.375 -25.0625 L 19.625 -25.0625 L 19.625 -19.515625 L 10.203125 -19.515625 L 10.203125 -14.453125 L 18.9375 -14.453125 L 18.9375 -9.875 L 10.203125 -9.875 L 10.203125 0 L 2.375 0 Z M 2.375 -25.0625 "/></g></g></g></g></g></g></g></g></g></svg>