<svg xmlns="http://www.w3.org/2000/svg" xmlns:xlink="http://www.w3.org/1999/xlink" width="205" zoomAndPan="magnify" viewBox="0 0 153.75 32.249999" height="43" preserveAspectRatio="xMidYMid meet" version="1.0"><defs><g/><clipPath id="1dcf9dd4f6"><path d="M 1.625 0 L 151.878906 0 L 151.878906 31.515625 L 1.625 31.515625 Z M 1.625 0 " clip-rule="nonzero"/></clipPath><clipPath id="d0a1caa0ea"><path d="M 0.625 0 L 150.878906 0 L 150.878906 31.515625 L 0.625 31.515625 Z M 0.625 0 " clip-rule="nonzero"/></clipPath><clipPath id="153ce16d88"><rect x="0" width="151" y="0" height="32"/></clipPath><clipPath id="415e6d7f0e"><rect x="0" width="151" y="0" height="32"/></clipPath></defs><g clip-path="url(#1dcf9dd4f6)"><g transform="matrix(1, 0, 0, 1, 1, 0)"><g clip-path="url(#415e6d7f0e)"><g clip-path="url(#d0a1caa0ea)"><g transform="matrix(1, 0, 0, 1, 0.000000000000000222, 0)"><g clip-path="url(#153ce16d88)"><g fill="#000000" fill-opacity="1"><g transform="translate(0.626784, 24.755639)"><g><path d="M 1.59375 -16.921875 L 13.25 -16.921875 L 13.25 -13.1875 L 6.890625 -13.1875 L 6.890625 -9.765625 L 12.78125 -9.765625 L 12.78125 -6.671875 L 6.890625 -6.671875 L 6.890625 0 L 1.59375 0 Z M 1.59375 -16.921875 "/></g></g></g><g fill="#000000" fill-opacity="1"><g transform="translate(14.223243, 24.755639)"><g><path d="M 7.703125 0.203125 C 6.316406 0.203125 5.085938 -0.0664062 4.015625 -0.609375 C 2.941406 -1.148438 2.101562 -1.898438 1.5 -2.859375 C 0.90625 -3.816406 0.609375 -4.921875 0.609375 -6.171875 C 0.609375 -7.421875 0.910156 -8.523438 1.515625 -9.484375 C 2.128906 -10.441406 2.972656 -11.179688 4.046875 -11.703125 C 5.117188 -12.234375 6.34375 -12.5 7.71875 -12.5 C 9.113281 -12.5 10.347656 -12.226562 11.421875 -11.6875 C 12.492188 -11.15625 13.328125 -10.414062 13.921875 -9.46875 C 14.515625 -8.519531 14.8125 -7.421875 14.8125 -6.171875 C 14.8125 -4.910156 14.507812 -3.800781 13.90625 -2.84375 C 13.3125 -1.882812 12.472656 -1.132812 11.390625 -0.59375 C 10.316406 -0.0625 9.085938 0.203125 7.703125 0.203125 Z M 7.75 -3.5 C 8.414062 -3.5 8.96875 -3.75 9.40625 -4.25 C 9.84375 -4.75 10.0625 -5.390625 10.0625 -6.171875 C 10.0625 -6.960938 9.84375 -7.609375 9.40625 -8.109375 C 8.96875 -8.609375 8.414062 -8.859375 7.75 -8.859375 C 7.070312 -8.859375 6.515625 -8.609375 6.078125 -8.109375 C 5.648438 -7.609375 5.4375 -6.960938 5.4375 -6.171875 C 5.4375 -5.390625 5.648438 -4.75 6.078125 -4.25 C 6.515625 -3.75 7.070312 -3.5 7.75 -3.5 Z M 7.75 -3.5 "/></g></g></g><g fill="#000000" fill-opacity="1"><g transform="translate(29.171972, 24.755639)"><g><path d="M 3.78125 -6.390625 L 0.296875 -12.328125 L 5.484375 -12.328125 L 6.859375 -9.421875 L 8.28125 -12.328125 L 13.328125 -12.328125 L 9.890625 -6.390625 L 13.578125 0 L 8.53125 0 L 6.859375 -3.140625 L 5.234375 0 L 0.046875 0 Z M 3.78125 -6.390625 "/></g></g></g><g fill="#000000" fill-opacity="1"><g transform="translate(42.817616, 24.755639)"><g><path d="M 5.5625 0.203125 C 4.1875 0.203125 3.113281 -0.238281 2.34375 -1.125 C 1.570312 -2.007812 1.1875 -3.21875 1.1875 -4.75 L 1.1875 -12.328125 L 6.390625 -12.328125 L 6.390625 -4.96875 C 6.390625 -4.59375 6.492188 -4.300781 6.703125 -4.09375 C 6.910156 -3.882812 7.175781 -3.78125 7.5 -3.78125 C 7.832031 -3.78125 8.171875 -3.878906 8.515625 -4.078125 L 8.78125 -0.65625 C 8.414062 -0.382812 7.941406 -0.171875 7.359375 -0.015625 C 6.785156 0.128906 6.1875 0.203125 5.5625 0.203125 Z M 3.796875 -14.171875 C 3.023438 -14.171875 2.375 -14.410156 1.84375 -14.890625 C 1.3125 -15.367188 1.046875 -15.960938 1.046875 -16.671875 C 1.046875 -17.378906 1.320312 -17.96875 1.875 -18.4375 C 2.4375 -18.914062 3.078125 -19.15625 3.796875 -19.15625 C 4.546875 -19.15625 5.195312 -18.910156 5.75 -18.421875 C 6.300781 -17.929688 6.578125 -17.347656 6.578125 -16.671875 C 6.578125 -15.953125 6.296875 -15.351562 5.734375 -14.875 C 5.179688 -14.40625 4.535156 -14.171875 3.796875 -14.171875 Z M 3.796875 -14.171875 "/></g></g></g><g fill="#000000" fill-opacity="1"><g transform="translate(51.791782, 24.755639)"><g><path d="M 7.59375 0.203125 C 6.238281 0.203125 5.03125 -0.0703125 3.96875 -0.625 C 2.914062 -1.175781 2.09375 -1.929688 1.5 -2.890625 C 0.90625 -3.847656 0.609375 -4.9375 0.609375 -6.15625 C 0.609375 -7.394531 0.910156 -8.5 1.515625 -9.46875 C 2.128906 -10.4375 2.953125 -11.179688 3.984375 -11.703125 C 5.015625 -12.234375 6.160156 -12.5 7.421875 -12.5 C 8.640625 -12.5 9.675781 -12.226562 10.53125 -11.6875 C 11.394531 -11.15625 12.039062 -10.4375 12.46875 -9.53125 C 12.894531 -8.625 13.109375 -7.601562 13.109375 -6.46875 C 13.109375 -6.175781 13.09375 -5.960938 13.0625 -5.828125 L 5.6875 -4.875 C 5.875 -4.300781 6.1875 -3.882812 6.625 -3.625 C 7.070312 -3.375 7.660156 -3.25 8.390625 -3.25 C 9.503906 -3.25 10.707031 -3.535156 12 -4.109375 L 12.609375 -0.8125 C 11.085938 -0.132812 9.414062 0.203125 7.59375 0.203125 Z M 9.296875 -7.96875 C 9.035156 -9 8.410156 -9.515625 7.421875 -9.515625 C 6.835938 -9.515625 6.375 -9.289062 6.03125 -8.84375 C 5.6875 -8.40625 5.503906 -7.832031 5.484375 -7.125 Z M 9.296875 -7.96875 "/></g></g></g><g fill="#0040ff" fill-opacity="1"><g transform="translate(65.463221, 24.755639)"><g><path d="M 4.796875 -16.921875 L 12.265625 -16.921875 L 17.171875 0 L 11.390625 0 L 10.75 -3.25 L 6.375 -3.25 L 5.65625 0 L 0.125 0 Z M 10.15625 -6.265625 L 8.5625 -13.671875 L 6.890625 -6.265625 Z M 10.15625 -6.265625 "/></g></g></g><g fill="#0040ff" fill-opacity="1"><g transform="translate(82.649357, 24.755639)"><g><path d="M 6.609375 0.203125 C 5.492188 0.203125 4.484375 -0.09375 3.578125 -0.6875 C 2.671875 -1.28125 1.953125 -2.0625 1.421875 -3.03125 C 0.898438 -4.007812 0.640625 -5.050781 0.640625 -6.15625 C 0.640625 -7.3125 0.910156 -8.378906 1.453125 -9.359375 C 2.003906 -10.335938 2.742188 -11.101562 3.671875 -11.65625 C 4.597656 -12.21875 5.585938 -12.5 6.640625 -12.5 C 7.585938 -12.5 8.394531 -12.300781 9.0625 -11.90625 C 9.726562 -11.507812 10.265625 -10.878906 10.671875 -10.015625 L 10.671875 -16.203125 L 15.859375 -16.96875 L 15.859375 0 L 10.671875 0 L 10.671875 -2.28125 C 9.898438 -0.625 8.546875 0.203125 6.609375 0.203125 Z M 8.234375 -3.6875 C 8.921875 -3.6875 9.5 -3.929688 9.96875 -4.421875 C 10.4375 -4.921875 10.671875 -5.5 10.671875 -6.15625 L 10.671875 -6.25 C 10.671875 -6.882812 10.425781 -7.4375 9.9375 -7.90625 C 9.445312 -8.375 8.878906 -8.609375 8.234375 -8.609375 C 7.546875 -8.609375 6.96875 -8.363281 6.5 -7.875 C 6.03125 -7.394531 5.796875 -6.820312 5.796875 -6.15625 C 5.796875 -5.457031 6.035156 -4.867188 6.515625 -4.390625 C 7.003906 -3.921875 7.578125 -3.6875 8.234375 -3.6875 Z M 8.234375 -3.6875 "/></g></g></g><g fill="#0040ff" fill-opacity="1"><g transform="translate(99.786321, 24.755639)"><g><path d="M 1.234375 -12.15625 L 6.171875 -12.15625 L 6.171875 -9.640625 C 6.734375 -10.609375 7.367188 -11.328125 8.078125 -11.796875 C 8.796875 -12.265625 9.644531 -12.5 10.625 -12.5 C 11.59375 -12.5 12.429688 -12.253906 13.140625 -11.765625 C 13.859375 -11.285156 14.394531 -10.632812 14.75 -9.8125 C 15.800781 -11.601562 17.328125 -12.5 19.328125 -12.5 C 20.273438 -12.5 21.101562 -12.242188 21.8125 -11.734375 C 22.53125 -11.222656 23.085938 -10.488281 23.484375 -9.53125 C 23.878906 -8.570312 24.078125 -7.445312 24.078125 -6.15625 L 24.078125 0 L 18.890625 0 L 18.890625 -6.15625 C 18.890625 -6.988281 18.742188 -7.617188 18.453125 -8.046875 C 18.171875 -8.472656 17.773438 -8.6875 17.265625 -8.6875 C 16.703125 -8.6875 16.21875 -8.445312 15.8125 -7.96875 C 15.414062 -7.488281 15.21875 -6.914062 15.21875 -6.25 L 15.21875 0 L 10.078125 0 L 10.078125 -6.15625 C 10.078125 -6.988281 9.929688 -7.617188 9.640625 -8.046875 C 9.359375 -8.472656 8.957031 -8.6875 8.4375 -8.6875 C 7.875 -8.6875 7.394531 -8.445312 7 -7.96875 C 6.613281 -7.488281 6.421875 -6.914062 6.421875 -6.25 L 6.421875 0 L 1.234375 0 Z M 1.234375 -12.15625 "/></g></g></g><g fill="#0040ff" fill-opacity="1"><g transform="translate(125.012324, 24.755639)"><g><path d="M 5.5625 0.203125 C 4.1875 0.203125 3.113281 -0.238281 2.34375 -1.125 C 1.570312 -2.007812 1.1875 -3.21875 1.1875 -4.75 L 1.1875 -12.328125 L 6.390625 -12.328125 L 6.390625 -4.96875 C 6.390625 -4.59375 6.492188 -4.300781 6.703125 -4.09375 C 6.910156 -3.882812 7.175781 -3.78125 7.5 -3.78125 C 7.832031 -3.78125 8.171875 -3.878906 8.515625 -4.078125 L 8.78125 -0.65625 C 8.414062 -0.382812 7.941406 -0.171875 7.359375 -0.015625 C 6.785156 0.128906 6.1875 0.203125 5.5625 0.203125 Z M 3.796875 -14.171875 C 3.023438 -14.171875 2.375 -14.410156 1.84375 -14.890625 C 1.3125 -15.367188 1.046875 -15.960938 1.046875 -16.671875 C 1.046875 -17.378906 1.320312 -17.96875 1.875 -18.4375 C 2.4375 -18.914062 3.078125 -19.15625 3.796875 -19.15625 C 4.546875 -19.15625 5.195312 -18.910156 5.75 -18.421875 C 6.300781 -17.929688 6.578125 -17.347656 6.578125 -16.671875 C 6.578125 -15.953125 6.296875 -15.351562 5.734375 -14.875 C 5.179688 -14.40625 4.535156 -14.171875 3.796875 -14.171875 Z M 3.796875 -14.171875 "/></g></g></g><g fill="#0040ff" fill-opacity="1"><g transform="translate(133.98649, 24.755639)"><g><path d="M 1.234375 -12.15625 L 6.171875 -12.15625 L 6.171875 -9.640625 C 7.117188 -11.546875 8.628906 -12.5 10.703125 -12.5 C 12.273438 -12.5 13.503906 -11.9375 14.390625 -10.8125 C 15.285156 -9.6875 15.734375 -8.132812 15.734375 -6.15625 L 15.734375 0 L 10.578125 0 L 10.578125 -6.671875 C 10.578125 -7.367188 10.425781 -7.90625 10.125 -8.28125 C 9.820312 -8.664062 9.398438 -8.859375 8.859375 -8.859375 C 8.460938 -8.859375 8.070312 -8.726562 7.6875 -8.46875 C 7.3125 -8.21875 7.003906 -7.851562 6.765625 -7.375 C 6.535156 -6.90625 6.421875 -6.363281 6.421875 -5.75 L 6.421875 0 L 1.234375 0 Z M 1.234375 -12.15625 "/></g></g></g></g></g></g></g></g></g></svg>